<svg width="30" height="28" viewBox="0 0 30 28" fill="none" xmlns="http://www.w3.org/2000/svg">
<rect x="0.0776367" y="0.207031" width="29.4536" height="27.0973" rx="8.24701" fill="#FFA9B9"/>
<path d="M19.1885 13.8984H20.4403V15.1502H19.1885V13.8984Z" fill="white"/>
<path d="M22.944 8.26616H7.92268V6.3885H21.6922V5.13672H7.92268C7.59068 5.13672 7.27229 5.2686 7.03754 5.50336C6.80278 5.73811 6.6709 6.0565 6.6709 6.3885V19.5322C6.6709 19.8642 6.80278 20.1826 7.03754 20.4173C7.27229 20.6521 7.59068 20.7839 7.92268 20.7839H22.944C23.276 20.7839 23.5944 20.6521 23.8292 20.4173C24.0639 20.1826 24.1958 19.8642 24.1958 19.5322V9.51794C24.1958 9.18595 24.0639 8.86756 23.8292 8.6328C23.5944 8.39805 23.276 8.26616 22.944 8.26616ZM7.92268 19.5322V9.51794H22.944V11.3956H17.9369C17.6049 11.3956 17.2865 11.5275 17.0518 11.7622C16.817 11.997 16.6851 12.3154 16.6851 12.6474V16.4027C16.6851 16.7347 16.817 17.0531 17.0518 17.2879C17.2865 17.5226 17.6049 17.6545 17.9369 17.6545H22.944V19.5322H7.92268ZM22.944 12.6474V16.4027H17.9369V12.6474H22.944Z" fill="white"/>
</svg>
